<?xml version="1.0" standalone="no"?>
<!DOCTYPE svg PUBLIC "-//W3C//DTD SVG 20010904//EN"
 "http://www.w3.org/TR/2001/REC-SVG-20010904/DTD/svg10.dtd">
<svg version="1.0" xmlns="http://www.w3.org/2000/svg"
 width="700.000000pt" height="700.000000pt" viewBox="0 0 700.000000 700.000000"
 preserveAspectRatio="xMidYMid meet">
<metadata>
Created by potrace 1.11, written by Peter Selinger 2001-2013
</metadata>
<g transform="translate(0.000000,700.000000) scale(0.100000,-0.100000)"
fill="#000000" stroke="none">
<path d="M1082 3626 l3 -3160 803 0 c442 -1 808 2 813 5 5 3 10 522 11 1241
l3 1237 450 -446 c806 -797 1946 -1927 2001 -1982 l53 -54 888 -1 888 0 3 130
3 129 -737 730 c-405 402 -888 881 -1074 1065 -187 184 -552 546 -811 804
l-473 469 244 240 c135 132 451 443 703 691 252 248 537 528 632 621 95 94
367 361 605 595 237 234 526 517 641 630 115 113 209 207 209 210 0 3 -423 5
-941 4 l-941 0 -279 -275 c-154 -151 -345 -337 -423 -414 -79 -77 -337 -330
-572 -561 -236 -232 -483 -475 -549 -539 -66 -64 -211 -207 -322 -317 l-203
-201 0 1152 c0 914 -3 1151 -12 1152 -7 0 -374 2 -816 2 l-802 2 2 -3159z"/>
</g>
</svg>
